<svg id="Layer_1" data-name="Layer 1" xmlns="http://www.w3.org/2000/svg" viewBox="0 0 160.09 70"><defs><style>.cls-1{fill:#8fc251;}.cls-2{fill:#4a524f;}.cls-3{fill:#231f20;}</style></defs><title>turbinehut- 70</title><path class="cls-1" d="M45.81,59.86c0,2.09-1.1,2.86-3.1,2.86H36.94c-2,0-3.09-.77-3.09-2.86V45.12h4.54V58.69h2.89V45.12h4.53Z"/><path class="cls-1" d="M59.76,62.72H55.22V56.8H52.64v5.92H48.11V45.12h8.54c2,0,3.11.79,3.11,2.89v4.51a2.1,2.1,0,0,1-1.63,2.27v.05a1.8,1.8,0,0,1,1.63,2.07Zm-4.54-9.93V49.15H52.64v3.64Z"/><path class="cls-1" d="M73.7,59.86c0,1.78-1.16,2.86-3.12,2.86H62.05V45.12H70.6c2,0,3.1.79,3.1,2.89v3.57a2.13,2.13,0,0,1-1.52,2.27v0c.91.15,1.52.75,1.52,2.07Zm-4.53-8V49.15H66.59v2.69Zm0,6.85V55.85H66.59v2.84Z"/><path class="cls-1" d="M80.53,53.69V45.12H76v17.6h4.54v-9L76.2,59l2.18-4.44-2.18.06L80.39,49l-2,4.71Z"/><path class="cls-1" d="M95.78,62.72H92l-4.63-8.06v8.06H82.82V45.12h4l4.45,7.69V45.12h4.54Z"/><path class="cls-1" d="M108.29,62.72H98.07V45.12h10.22v4h-5.68v2.69h5.68v4h-5.68v2.84h5.68Z"/><path class="cls-1" d="M128.4,62.72h-4.54V55.83h-3.17v6.89h-4.54V45.12h4.54v6.72h3.17V45.12h4.54Z"/><path class="cls-1" d="M142.66,59.86c0,2.09-1.11,2.86-3.11,2.86h-5.77c-2,0-3.09-.77-3.09-2.86V45.12h4.54V58.69h2.89V45.12h4.54Z"/><path class="cls-1" d="M156.49,49.15h-3.77V62.72h-4.54V49.15h-3.76v-4h12.07Z"/><polygon class="cls-2" points="28.83 19.91 26.75 19.55 26.75 2.62 28.83 2.62 28.83 19.91"/><polygon class="cls-2" points="25.49 32.28 27.57 32.92 27.57 62.99 25.49 62.99 25.49 32.28"/><rect class="cls-1" x="22.34" y="51.14" width="2.28" height="11.85"/><rect class="cls-1" x="28.55" y="41.12" width="2.33" height="21.87"/><polygon class="cls-1" points="25.15 19.64 23.07 20.1 23.07 10.7 25.15 10.7 25.15 19.64"/><polygon class="cls-1" points="30.88 31.01 32.23 29.39 46.89 37.86 45.85 39.66 30.88 31.01"/><polygon class="cls-2" points="32.95 27.96 33.59 25.93 41.74 30.63 40.7 32.43 32.95 27.96"/><polygon class="cls-1" points="19.29 26.45 19.95 28.45 5.05 36.49 4.06 34.66 19.29 26.45"/><polygon class="cls-2" points="20.8 29.82 22.18 31.43 13.91 35.89 12.92 34.06 20.8 29.82"/><path class="cls-3" d="M26.22,31.22a5.28,5.28,0,1,1,5.28-5.28A5.29,5.29,0,0,1,26.22,31.22Zm0-8.61a3.33,3.33,0,1,0,3.33,3.33A3.33,3.33,0,0,0,26.22,22.61Z"/><rect class="cls-2" x="22.34" y="64.21" width="8.53" height="3.17"/><rect class="cls-2" x="34.04" y="64.21" width="122.44" height="3.17"/><polygon class="cls-3" points="80.55 53.7 80.53 53.72 80.53 53.7 80.55 53.7"/></svg>